<svg width="64" height="64" viewBox="0 0 64 64" fill="none" xmlns="http://www.w3.org/2000/svg">
<rect width="64" height="64" fill="#FF8700"/>
<path d="M13.3125 21.3125V34.2625L32.9688 53.9188L46.15 40.7375L26.4938 21.3125H13.3125ZM19.0938 27.0938C20.7125 25.475 23.2563 25.475 24.875 27.0938C26.4938 28.7125 26.4938 31.2563 24.875 32.875C23.2563 34.4937 20.7125 34.4937 19.0938 32.875C17.475 31.2563 17.475 28.7125 19.0938 27.0938Z" fill="#999999"/>
<path d="M15.625 23.625V33.3375L32.9688 50.6813L42.6813 40.9688L25.3375 23.625H15.625ZM19.0938 27.0938C20.7125 25.475 23.2563 25.475 24.875 27.0938C26.4938 28.7125 26.4938 31.2563 24.875 32.875C23.2563 34.4938 20.7125 34.4938 19.0938 32.875C17.475 31.2563 17.475 28.7125 19.0938 27.0938Z" fill="white"/>
<path d="M19.0938 27.0937C17.475 28.7125 17.475 31.2562 19.0938 32.875C20.7125 34.4937 23.2563 34.4937 24.875 32.875C26.4938 31.2562 26.4938 28.7125 24.875 27.0937C23.2563 25.475 20.7125 25.475 19.0938 27.0937ZM20.7125 28.7125C21.4063 28.0187 22.5625 28.0187 23.2563 28.7125C23.95 29.4062 23.95 30.5625 23.2563 31.2562C22.5625 31.95 21.4063 31.95 20.7125 31.2562C20.0188 30.3312 20.0188 29.4062 20.7125 28.7125V28.7125Z" fill="#999999"/>
<path d="M25.1456 38.8089L30.869 33.0831L39.0437 41.2578L33.3203 46.9813L25.1456 38.8089Z" fill="#FF8700"/>
<path d="M18.3125 10.3125V23.2625L37.9688 42.9188L51.15 29.7375L31.4938 10.3125H18.3125ZM24.0938 16.0938C25.7125 14.475 28.2563 14.475 29.875 16.0938C31.4938 17.7125 31.4938 20.2563 29.875 21.875C28.2563 23.4937 25.7125 23.4937 24.0938 21.875C22.475 20.2563 22.475 17.7125 24.0938 16.0938Z" fill="#999999"/>
<path d="M20.625 12.625V22.3375L37.9688 39.6813L47.6813 29.9688L30.3375 12.625H20.625ZM24.0938 16.0938C25.7125 14.475 28.2563 14.475 29.875 16.0938C31.4938 17.7125 31.4938 20.2563 29.875 21.875C28.2563 23.4938 25.7125 23.4938 24.0938 21.875C22.475 20.2563 22.475 17.7125 24.0938 16.0938Z" fill="white"/>
<path d="M24.0938 16.0937C22.475 17.7125 22.475 20.2562 24.0938 21.875C25.7125 23.4937 28.2563 23.4937 29.875 21.875C31.4938 20.2562 31.4938 17.7125 29.875 16.0937C28.2563 14.475 25.7125 14.475 24.0938 16.0937ZM25.7125 17.7125C26.4063 17.0187 27.5625 17.0187 28.2563 17.7125C28.95 18.4062 28.95 19.5625 28.2563 20.2562C27.5625 20.95 26.4063 20.95 25.7125 20.2562C25.0188 19.3312 25.0188 18.4062 25.7125 17.7125V17.7125Z" fill="#999999"/>
<path d="M30.1456 27.8089L35.869 22.0831L44.0437 30.2578L38.3203 35.9813L30.1456 27.8089Z" fill="#FF8700"/>
</svg>
